PathFileType	4	(X/Y/Z)	../Python\walking\Walking06\task.trc
DataRate	CameraRate	NumFrames	NumMarkers	Units	OrigDataRate	OrigDataStartFrame	OrigNumFrames
200.000000	200.000000	5	30	mm	200.000000	275	551
Frame#	Time	CLAV			STRN			RASI			RPSI			LPSI			LASI			RTH1			RTH2			RTH3			RTB1			RTB2			RTB3			RD5M			RTOE			LTH1			LTH3			LTB1			LTB2			LTB3			LTOE			LD5M			PE03			T10			PE01			LHEE			PE02			LTH2			C7			RHEE			RBAK			
		X1	Y1	Z1	X2	Y2	Z2	X3	Y3	Z3	X4	Y4	Z4	X5	Y5	Z5	X6	Y6	Z6	X7	Y7	Z7	X8	Y8	Z8	X9	Y9	Z9	X10	Y10	Z10	X11	Y11	Z11	X12	Y12	Z12	X13	Y13	Z13	X14	Y14	Z14	X15	Y15	Z15	X16	Y16	Z16	X17	Y17	Z17	X18	Y18	Z18	X19	Y19	Z19	X20	Y20	Z20	X21	Y21	Z21	X22	Y22	Z22	X23	Y23	Z23	X24	Y24	Z24	X25	Y25	Z25	X26	Y26	Z26	X27	Y27	Z27	X28	Y28	Z28	X29	Y29	Z29	X30	Y30	Z30	

276	1.375	1084.139038085938	1431.9345703125	150.0197296142579	1132.593505859375	1237.864379882813	158.2320098876954	1111.124633789063	1032.038330078125	292.5468139648439	946.7683105468755	1069.453369140625	221.6602020263673	937.8074340820317	1072.375122070313	122.361671447754	1107.737915039063	1027.744018554688	19.31919097900391	1164.648315429688	790.3225708007817	340.2704162597657	1125.614379882813	742.768005371094	331.6976928710939	1164.688720703125	713.1754150390627	321.2857055664064	1256.977416992188	399.2821044921877	280.748748779297	1210.748901367188	358.7067260742189	285.7792968750001	1242.48486328125	321.0856018066407	276.6163330078126	1283.329345703125	31.02009963989259	289.6759338378907	1334.96435546875	50.15094375610354	256.0152893066407	986.463500976563	724.756530761719	2.76887345314026	998.403930664063	649.0887451171877	22.17428970336915	906.401245117188	365.8309936523439	61.29559707641604	873.5416870117192	332.2884521484376	79.27563476562503	917.3954467773442	288.4209289550782	73.16678619384768	1034.496826171875	31.22067260742189	141.8424987792969	982.795043945313	16.69420242309571	96.15494537353521	933.4367065429692	1057.625122070313	148.3481140136719	905.9152221679692	1268.502685546875	145.959457397461	948.130493164063	1117.768188476563	171.8843383789063	821.482543945313	47.78597259521486	172.0448150634766	940.7873535156255	1057.2451171875	199.2228851318361	952.9891967773442	690.9233398437502	18.77598953247071	970.780151367188	1522.664184570313	136.6801147460938	1130.484130859375	51.87918472290042	205.3978576660157	947.658569335938	1441.390258789063	308.939422607422	
277	1.38	1090.666259765625	1431.2724609375	149.628646850586	1138.902221679688	1237.172241210938	157.7494201660157	1117.726196289063	1031.684326171875	292.2603454589845	953.202026367188	1068.9208984375	221.7324676513673	943.9591674804692	1071.843017578125	122.4704132080079	1113.56884765625	1027.030029296875	19.02386093139649	1171.369018554688	789.921508789063	340.0715637207032	1132.279174804688	742.3642578125002	331.8114624023439	1171.354736328125	712.7677001953127	321.2718505859376	1267.351806640625	398.6201477050784	280.2358703613282	1222.411010742188	356.6119689941407	285.1597290039064	1255.240600585938	320.0304260253907	276.0125427246095	1305.954345703125	30.65660095214845	287.3602294921876	1356.748779296875	51.60508728027347	253.5383453369142	990.5754394531255	724.6198730468752	2.530599832534791	1002.022888183594	648.8965454101565	22.0191822052002	908.186889648438	366.2377929687501	61.3472709655762	875.1625366210942	332.9107055664064	79.44971466064456	918.729125976563	288.7835998535157	73.17637634277347	1034.570678710938	31.20262145996095	141.7783813476563	982.7440795898442	16.70413398742676	96.18995666503912	939.6322631835942	1057.086303710938	148.4812774658204	912.219116210938	1268.049194335938	145.6468048095704	954.416137695313	1117.237426757813	171.955307006836	821.660766601563	48.46804046630862	172.2595977783204	947.170532226563	1056.717895507813	199.3369293212892	956.9160766601567	691.0455322265627	18.73109817504884	977.368774414063	1522.080322265625	136.3829345703126	1151.96142578125	47.6727638244629	204.3404235839845	954.3103637695317	1440.953369140625	308.5158996582032	
278	1.385	1097.2109375	1430.564208984375	149.2464599609376	1145.233520507813	1236.436279296875	157.2885437011719	1124.377807617188	1031.254150390625	291.9946289062501	959.678100585938	1068.339111328125	221.8318481445314	950.140014648438	1071.269287109375	122.6092834472657	1119.417846679688	1026.288208007813	18.73057174682618	1177.937622070313	789.323852539063	339.8931274414064	1138.762573242188	741.8071899414065	331.8589172363282	1177.826782226563	712.1702880859377	321.2470703125001	1277.539306640625	397.9509277343752	279.7526855468751	1233.917724609375	354.5651855468751	284.5305175781251	1267.808227539063	319.049041748047	275.4251098632814	1328.380981445313	30.63984298706056	284.9703979492189	1378.249633789063	53.34865951538089	250.9482879638673	994.7695312500005	724.458923339844	2.301815986633302	1005.725769042969	648.676452636719	21.86360740661622	910.048706054688	366.6382446289064	61.38179397583011	876.856323242188	333.5272827148439	79.585807800293	920.133178710938	289.1374816894532	73.16809082031253	1034.644287109375	31.1821804046631	141.7207031250001	982.6943969726567	16.71835517883301	96.2221298217774	945.8659057617192	1056.506469726563	148.6414947509766	918.544067382813	1267.543823242188	145.3607330322266	960.7357788085942	1116.6630859375	172.0589447021485	821.8379516601567	49.17597198486331	172.4361267089844	953.5921020507817	1056.144409179688	199.4765625000001	960.9318237304692	691.1419677734377	18.69964981079102	983.971069335938	1521.447265625	136.0907135009766	1173.310791015625	43.86447525024415	203.3297271728517	960.9797973632817	1440.480346679688	308.1037597656251	
279	1.39	1103.773803710938	1429.810913085938	148.8734741210938	1151.588745117188	1235.6572265625	156.8480529785157	1131.080810546875	1030.746704101563	291.7466125488282	966.1979370117192	1067.709106445313	221.9603118896486	956.3508911132817	1070.6533203125	122.780258178711	1125.286254882813	1025.51806640625	18.4364128112793	1184.356567382813	788.5310668945317	339.7360229492189	1145.066650390625	741.0974731445315	331.8414306640626	1184.104858398438	711.382751464844	321.2132873535157	1287.54443359375	397.2752075195315	279.2943725585939	1245.270751953125	352.5704040527345	283.8956909179689	1280.185791015625	318.143035888672	274.8472290039064	1350.570190429688	30.98201370239259	282.5162353515626	1399.434692382813	55.39001846313479	248.2580413818361	999.0488281250005	724.2722167968752	2.08542561531067	1009.519287109375	648.4259033203127	21.70551872253419	911.9929809570317	367.0305786132814	61.40000152587893	878.6307983398442	334.1347961425782	79.6818771362305	921.613891601563	289.4765014648439	73.14251708984378	1034.718383789063	31.15956115722658	141.6695709228516	982.6458129882817	16.73709678649903	96.25320434570318	952.1388549804692	1055.885620117188	148.8305816650391	924.8911132812505	1266.986938476563	145.1011505126954	967.0910034179692	1116.045654296875	172.1963195800782	822.0158081054692	49.91201782226565	172.5799407958985	960.0529174804692	1055.525512695313	199.6435699462892	965.040893554688	691.208435058594	18.68169212341309	990.5874633789067	1520.76611328125	135.8044586181641	1194.498901367188	40.4567337036133	202.3584899902345	967.6674804687505	1439.971069335938	307.7037963867189	
280	1.395	1110.355590820313	1429.013916015625	148.5100402832032	1157.969604492188	1234.835815429688	156.4265441894532	1137.836181640625	1030.161376953125	291.5137634277345	972.7626953125005	1067.031982421875	222.1193695068361	962.5928344726567	1069.994995117188	122.9848022460938	1131.175659179688	1024.719116210938	18.13893508911134	1190.630004882813	787.5471191406255	339.600799560547	1151.19580078125	740.2377929687502	331.761199951172	1190.191040039063	710.4072265625002	321.1718139648439	1297.373413085938	396.5945739746096	278.8553466796876	1256.47265625	350.6317138671876	283.2594299316407	1292.372680664063	317.3139648437501	274.2716369628907	1372.482543945313	31.69163322448732	280.0097656250001	1420.272338867188	57.73513031005862	245.4846801757814	1003.413940429688	724.0588989257815	1.88349211215973	1013.407897949219	648.143249511719	21.54348754882813	914.024047851563	367.4136047363282	61.40388107299808	880.4921875000005	334.730926513672	79.7381286621094	923.176635742188	289.7960205078126	73.10297393798831	1034.79345703125	31.13498497009279	141.6250610351563	982.597778320313	16.76058959960938	96.28547668457037	958.4522094726567	1055.223876953125	149.0499114990235	931.261596679688	1266.379150390625	144.8679199218751	973.483520507813	1115.385620117188	172.3681030273438	822.1960449218755	50.67885208129886	172.6980590820313	966.5539550781255	1054.862060546875	199.8393402099611	969.244995117188	691.2417602539065	18.67634582519532	997.2182006835942	1520.03857421875	135.5251770019532	1215.492553710938	37.44763183593751	201.4166259765626	974.3739624023442	1439.425170898438	307.3169555664064	
